<svg width="34" height="28" viewBox="0 0 34 28" fill="none" xmlns="http://www.w3.org/2000/svg">
<path d="M3.78571 14H11.2143M3.32143 21.8929C3.32143 21.8929 5.17857 23.2857 7.5 21.8929C9.82143 20.5 11.6786 21.8929 11.6786 21.8929M5.64286 14V18.1786L1 25.6071V27H14V25.5319L9.35714 18.1786V14H5.64286Z" stroke="black" stroke-width="2"/>
<path d="M7 10.5H25.6667M25.6667 10.5V21C25.6667 25.6667 23.3333 26.5 16.3333 26.5M25.6667 10.5V14C25.6667 14.6922 25.8719 15.3689 26.2565 15.9445C26.6411 16.5201 27.1877 16.9687 27.8273 17.2336C28.4668 17.4985 29.1706 17.5678 29.8495 17.4327C30.5284 17.2977 31.1521 16.9644 31.6415 16.4749C32.131 15.9854 32.4644 15.3617 32.5994 14.6828C32.7345 14.0039 32.6652 13.3001 32.4002 12.6606C32.1353 12.0211 31.6867 11.4744 31.1112 11.0899C30.5356 10.7053 29.8589 10.5 29.1667 10.5H25.6667ZM21 7V2.33333M11.6667 7V4.66667M16.3333 7V0" stroke="black" stroke-width="2"/>
</svg>
