<svg width="512" height="512" viewBox="0 0 512 512" fill="none" xmlns="http://www.w3.org/2000/svg">
<g clip-path="url(#clip0_1_2)">
<path d="M505.403 406.394L295.389 58.102C287.115 44.381 272.022 35.857 255.999 35.857C239.976 35.857 224.883 44.381 216.608 58.103L6.59501 406.394C-1.95599 420.576 -2.20899 438.344 5.93401 452.764C14.079 467.184 29.425 476.142 45.985 476.142H466.013C482.573 476.142 497.92 467.184 506.065 452.763C514.208 438.342 513.955 420.574 505.403 406.394ZM477.039 436.372C474.797 440.341 470.572 442.808 466.013 442.808H45.985C41.426 442.808 37.201 440.342 34.96 436.373C32.718 432.403 32.788 427.511 35.141 423.608L245.156 75.316C247.434 71.539 251.589 69.192 256 69.192C260.41 69.192 264.565 71.539 266.843 75.316L476.856 423.608C479.211 427.512 479.281 432.403 477.039 436.372Z" fill="#00FF00"/>
<path d="M256.154 173.005C243.474 173.005 233.578 179.809 233.578 191.871C233.578 228.673 237.907 281.557 237.907 318.36C237.908 327.947 246.259 331.967 256.155 331.967C263.577 331.967 274.092 327.947 274.092 318.36C274.092 281.558 278.421 228.674 278.421 191.871C278.421 179.81 268.216 173.005 256.154 173.005Z" fill="#00FF00"/>
<path d="M256.465 353.306C242.858 353.306 232.651 364.13 232.651 377.12C232.651 389.8 242.857 400.934 256.465 400.934C269.145 400.934 279.97 389.8 279.97 377.12C279.97 364.13 269.144 353.306 256.465 353.306Z" fill="#00FF00"/>
</g>
<defs>
<clipPath id="clip0_1_2">
<rect width="512" height="512" fill="white"/>
</clipPath>
</defs>
</svg>
